{
    "asset" : {
        "generator" : "Khronos glTF Blender I/O v1.0.5",
        "version" : "2.0"
    },
    "scene" : 0,
    "scenes" : [
        {
            "name" : "Scene",
            "nodes" : [
                0,
                1,
                2,
                3
            ]
        }
    ],
    "nodes" : [
        {
            "mesh" : 0,
            "name" : "Box"
        },
        {
            "name" : "Light",
            "rotation" : [
                0.16907551884651184,
                0.7558804154396057,
                -0.2721710503101349,
                0.5709475874900818
            ],
            "translation" : [
                3,
                3,
                -3
            ]
        },
        {
            "name" : "Camera",
            "rotation" : [
                0.483536034822464,
                0.33687159419059753,
                -0.20870360732078552,
                0.7804827094078064
            ],
            "translation" : [
                7.358891487121582,
                4.958309173583984,
                6.925790786743164
            ]
        },
        {
            "mesh" : 1,
            "name" : "Cell1",
            "scale" : [
                0.4271419644355774,
                0.4271419644355774,
                0.4271419644355774
            ],
            "translation" : [
                -0.7229248285293579,
                0,
                -0.21687744557857513
            ]
        }
    ],
    "materials" : [
        {
            "doubleSided" : true,
            "name" : "Material.004",
            "pbrMetallicRoughness" : {
                "baseColorTexture" : {
                    "index" : 0,
                    "texCoord" : 0
                },
                "metallicFactor" : 0,
                "roughnessFactor" : 0.5
            }
        },
        {
            "doubleSided" : true,
            "name" : "Material.005",
            "pbrMetallicRoughness" : {
                "baseColorTexture" : {
                    "index" : 1,
                    "texCoord" : 0
                },
                "metallicFactor" : 0,
                "roughnessFactor" : 0.5
            }
        }
    ],
    "meshes" : [
        {
            "name" : "Cube",
            "primitives" : [
                {
                    "attributes" : {
                        "POSITION" : 0,
                        "NORMAL" : 1,
                        "TEXCOORD_0" : 2
                    },
                    "indices" : 3,
                    "material" : 0
                }
            ]
        },
        {
            "name" : "Cylinder",
            "primitives" : [
                {
                    "attributes" : {
                        "POSITION" : 4,
                        "NORMAL" : 5,
                        "TEXCOORD_0" : 6
                    },
                    "indices" : 7,
                    "material" : 1
                }
            ]
        }
    ],
    "textures" : [
        {
            "source" : 0
        },
        {
            "source" : 1
        }
    ],
    "images" : [
        {
            "bufferView" : 4,
            "mimeType" : "image/jpeg",
            "name" : "steelwall"
        },
        {
            "bufferView" : 9,
            "mimeType" : "image/jpeg",
            "name" : "sunflare"
        }
    ],
    "accessors" : [
        {
            "bufferView" : 0,
            "componentType" : 5126,
            "count" : 70,
            "max" : [
                1.5,
                0.25,
                1.5
            ],
            "min" : [
                -1.5,
                -0.25,
                -1
            ],
            "type" : "VEC3"
        },
        {
            "bufferView" : 1,
            "componentType" : 5126,
            "count" : 70,
            "type" : "VEC3"
        },
        {
            "bufferView" : 2,
            "componentType" : 5126,
            "count" : 70,
            "type" : "VEC2"
        },
        {
            "bufferView" : 3,
            "componentType" : 5123,
            "count" : 144,
            "type" : "SCALAR"
        },
        {
            "bufferView" : 5,
            "componentType" : 5126,
            "count" : 448,
            "max" : [
                0.46758341789245605,
                0.8245398998260498,
                0.4675832986831665
            ],
            "min" : [
                -0.46758347749710083,
                0.07499992847442627,
                -0.46758365631103516
            ],
            "type" : "VEC3"
        },
        {
            "bufferView" : 6,
            "componentType" : 5126,
            "count" : 448,
            "type" : "VEC3"
        },
        {
            "bufferView" : 7,
            "componentType" : 5126,
            "count" : 448,
            "type" : "VEC2"
        },
        {
            "bufferView" : 8,
            "componentType" : 5123,
            "count" : 756,
            "type" : "SCALAR"
        }
    ],
    "bufferViews" : [
        {
            "buffer" : 0,
            "byteLength" : 840,
            "byteOffset" : 0
        },
        {
            "buffer" : 0,
            "byteLength" : 840,
            "byteOffset" : 840
        },
        {
            "buffer" : 0,
            "byteLength" : 560,
            "byteOffset" : 1680
        },
        {
            "buffer" : 0,
            "byteLength" : 288,
            "byteOffset" : 2240
        },
        {
            "buffer" : 0,
            "byteLength" : 10576,
            "byteOffset" : 2528
        },
        {
            "buffer" : 0,
            "byteLength" : 5376,
            "byteOffset" : 13104
        },
        {
            "buffer" : 0,
            "byteLength" : 5376,
            "byteOffset" : 18480
        },
        {
            "buffer" : 0,
            "byteLength" : 3584,
            "byteOffset" : 23856
        },
        {
            "buffer" : 0,
            "byteLength" : 1512,
            "byteOffset" : 27440
        },
        {
            "buffer" : 0,
            "byteLength" : 6831,
            "byteOffset" : 28952
        }
    ],
    "buffers" : [
        {
            "byteLength" : 35784,
            "uri" : "data:application/octet-stream;base64,"
        }
    ]
}
