{
    "asset" : {
        "generator" : "Khronos glTF Blender I/O v1.0.5",
        "version" : "2.0"
    },
    "scene" : 0,
    "scenes" : [
        {
            "name" : "Scene",
            "nodes" : [
                0,
                1,
                2,
                3
            ]
        }
    ],
    "nodes" : [
        {
            "mesh" : 0,
            "name" : "Base",
            "rotation" : [
                -1,
                0,
                0,
                -4.371138828673793e-08
            ]
        },
        {
            "name" : "Lamp",
            "rotation" : [
                0.16907575726509094,
                0.7558803558349609,
                -0.27217137813568115,
                0.570947527885437
            ],
            "translation" : [
                4.076245307922363,
                5.903861999511719,
                -1.0054539442062378
            ]
        },
        {
            "name" : "Camera",
            "rotation" : [
                0.48170700669288635,
                0.3342514932155609,
                -0.21292176842689514,
                0.7816000580787659
            ],
            "translation" : [
                7.481131553649902,
                5.34366512298584,
                6.5076398849487305
            ]
        },
        {
            "mesh" : 1,
            "name" : "Spinner",
            "rotation" : [
                0,
                0,
                -0.7071067690849304,
                0.7071067690849304
            ],
            "scale" : [
                0.07960893213748932,
                0.3335188627243042,
                0.3335188627243042
            ],
            "translation" : [
                0.2057660073041916,
                0.3024407625198364,
                -1.2464878559112549
            ]
        }
    ],
    "materials" : [
        {
            "doubleSided" : true,
            "name" : "Material.001",
            "pbrMetallicRoughness" : {}
        },
        {
            "doubleSided" : true,
            "name" : "Material",
            "pbrMetallicRoughness" : {
                "baseColorTexture" : {
                    "index" : 0,
                    "texCoord" : 0
                },
                "metallicFactor" : 0.25,
                "roughnessFactor" : 0.5
            }
        }
    ],
    "meshes" : [
        {
            "name" : "Cube",
            "primitives" : [
                {
                    "attributes" : {
                        "POSITION" : 0,
                        "NORMAL" : 1,
                        "TEXCOORD_0" : 2
                    },
                    "indices" : 3,
                    "material" : 0
                }
            ]
        },
        {
            "name" : "Sphere",
            "primitives" : [
                {
                    "attributes" : {
                        "POSITION" : 4,
                        "NORMAL" : 5,
                        "TEXCOORD_0" : 6
                    },
                    "indices" : 7,
                    "material" : 1
                }
            ]
        }
    ],
    "textures" : [
        {
            "source" : 0
        }
    ],
    "images" : [
        {
            "bufferView" : 8,
            "mimeType" : "image/png",
            "name" : "MetalPipes"
        }
    ],
    "accessors" : [
        {
            "bufferView" : 0,
            "componentType" : 5126,
            "count" : 62,
            "max" : [
                3.3336708545684814,
                0.3999998867511749,
                2.790729522705078
            ],
            "min" : [
                -0.6663291454315186,
                -0.40000012516975403,
                0.5907290577888489
            ],
            "type" : "VEC3"
        },
        {
            "bufferView" : 1,
            "componentType" : 5126,
            "count" : 62,
            "type" : "VEC3"
        },
        {
            "bufferView" : 2,
            "componentType" : 5126,
            "count" : 62,
            "type" : "VEC2"
        },
        {
            "bufferView" : 3,
            "componentType" : 5123,
            "count" : 108,
            "type" : "SCALAR"
        },
        {
            "bufferView" : 4,
            "componentType" : 5126,
            "count" : 1984,
            "max" : [
                1.000000238418579,
                1,
                1.0000003576278687
            ],
            "min" : [
                -0.9999998211860657,
                -1,
                -1
            ],
            "type" : "VEC3"
        },
        {
            "bufferView" : 5,
            "componentType" : 5126,
            "count" : 1984,
            "type" : "VEC3"
        },
        {
            "bufferView" : 6,
            "componentType" : 5126,
            "count" : 1984,
            "type" : "VEC2"
        },
        {
            "bufferView" : 7,
            "componentType" : 5123,
            "count" : 2880,
            "type" : "SCALAR"
        }
    ],
    "bufferViews" : [
        {
            "buffer" : 0,
            "byteLength" : 744,
            "byteOffset" : 0
        },
        {
            "buffer" : 0,
            "byteLength" : 744,
            "byteOffset" : 744
        },
        {
            "buffer" : 0,
            "byteLength" : 496,
            "byteOffset" : 1488
        },
        {
            "buffer" : 0,
            "byteLength" : 216,
            "byteOffset" : 1984
        },
        {
            "buffer" : 0,
            "byteLength" : 23808,
            "byteOffset" : 2200
        },
        {
            "buffer" : 0,
            "byteLength" : 23808,
            "byteOffset" : 26008
        },
        {
            "buffer" : 0,
            "byteLength" : 15872,
            "byteOffset" : 49816
        },
        {
            "buffer" : 0,
            "byteLength" : 5760,
            "byteOffset" : 65688
        },
        {
            "buffer" : 0,
            "byteLength" : 258498,
            "byteOffset" : 71448
        }
    ],
    "buffers" : [
        {
            "byteLength" : 329948,
            "uri" : "data:application/octet-stream;base64,"
        }
    ]
}
